<?xml version="1.0"?>
<svg xmlns="http://www.w3.org/2000/svg" xmlns:xlink="http://www.w3.org/1999/xlink" xmlns:svgjs="http://svgjs.com/svgjs" version="1.1" width="512" height="512" x="0" y="0" viewBox="0 0 512 512" style="enable-background:new 0 0 512 512" xml:space="preserve" class=""><g><path xmlns="http://www.w3.org/2000/svg" d="m432.734375 112.464844c-53.742187 0-97.464844-43.722656-97.464844-97.464844 0-8.285156-6.714843-15-15-15h-80.335937c-8.28125 0-15 6.714844-15 15v329.367188c0 31.59375-25.707032 57.296874-57.300782 57.296874s-57.296874-25.703124-57.296874-57.296874c0-31.597657 25.703124-57.300782 57.296874-57.300782 8.285157 0 15-6.714844 15-15v-80.335937c0-8.28125-6.714843-15-15-15-92.433593 0-167.632812 75.203125-167.632812 167.636719 0 92.433593 75.199219 167.632812 167.632812 167.632812 92.433594 0 167.636719-75.199219 167.636719-167.632812v-145.792969c29.851563 15.917969 63.074219 24.226562 97.464844 24.226562 8.285156 0 15-6.714843 15-15v-80.335937c0-8.28125-6.714844-15-15-15zm0 0" fill="#ffffff" data-original="#000000" style="" class=""/></g></svg>
